<?xml version="1.0" encoding="UTF-8" standalone="no"?>
<!DOCTYPE svg PUBLIC "-//W3C//DTD SVG 1.1//EN" "http://www.w3.org/Graphics/SVG/1.1/DTD/svg11.dtd">
<svg width="100%" height="100%" viewBox="0 0 1024 1024" version="1.1" xmlns="http://www.w3.org/2000/svg" xmlns:xlink="http://www.w3.org/1999/xlink" xml:space="preserve" xmlns:serif="http://www.serif.com/" style="fill-rule:evenodd;clip-rule:evenodd;stroke-linejoin:round;stroke-miterlimit:2;">
    <g id="背景">
        <path d="M760.443,650.949C816.85,657.31 820.954,644.361 828.062,654.789C832.216,660.882 826.438,669.892 803.939,699.822C785.57,724.256 780.821,728.064 762.531,727.04C710.566,724.132 666.788,696.335 659.426,691.66C649.338,685.254 672.761,711.05 688.886,723.005C728.218,752.167 753.704,753.107 750.122,757.228C748.228,759.407 721.307,781.302 700.262,794.113C692.367,798.919 641.822,829.688 594.565,840.762C586.776,842.587 582.317,844.831 549.229,822.913C541.624,817.876 501.346,791.194 468.104,742.785C466.259,740.1 462.172,733.347 461.945,735.681C461.9,736.146 478.78,790.874 520.832,832.152C535.758,846.802 543.349,850.906 539.456,851.364C532.439,852.189 461.283,857.885 439.723,845.108C393.263,817.573 348.997,726.493 339.44,656.508C338.988,653.2 341.09,654.241 373.675,639.894C385.288,634.781 385.494,635.317 519.62,577.782C591.597,546.906 592.138,547.03 593.197,547.884C602.1,555.063 655.668,634.34 758.465,650.71C759.121,650.815 759.787,650.845 760.443,650.949Z" style="fill:rgb(15,85,115);"/>
        <path d="M506.506,457.943C521.478,458.525 534.887,460.51 552.883,475.047C572.342,490.766 577.794,514.311 579.03,523.532C579.244,525.122 578.858,525.599 561.332,533.099C543.113,540.897 337.725,628.796 333.4,630.099C329.048,631.409 316.359,603.368 323.201,572.431C334.419,521.705 388.245,504.084 388.273,504.071C391.263,502.628 387.901,498.117 375.913,475.28C333.545,394.574 261.948,309.371 192.208,248.858C158.744,219.821 177.584,175.449 208.494,171.457C235.672,167.946 248.166,184.434 271.939,211.103C382.992,335.68 433.546,456.271 443.756,476.362C447.407,483.546 466.054,459.616 506.506,457.943Z" style="fill:rgb(16,84,115);"/>
        <path d="M814.93,556.535C829.811,351.81 665.391,231.132 535.525,221.224C521.447,220.15 521.5,220.772 507.48,219.742C482.025,217.87 476.455,181.582 500.396,172.256C512.583,167.508 603.517,169.632 688.226,219.971C831.006,304.819 885.744,463.386 859.994,593.634C858.972,598.804 808.38,610.173 806.814,607.318C804.786,603.622 810.238,603.782 814.93,556.535Z" style="fill:rgb(16,84,114);"/>
        <path d="M542.447,267.919C683.328,288.961 768.421,406.051 770.963,523.485C771.518,549.138 769.261,572.2 760.262,603.421C759.664,605.495 758.511,607.655 733.625,599.141C711.814,591.68 712.445,589.451 712.961,587.63C752.887,446.628 645.487,318.764 513.511,314.166C509.32,314.02 493.986,315.108 486.716,299.407C484.924,295.536 478.687,264.636 514.498,265.566C526.116,265.867 534.447,266.861 542.447,267.919Z" style="fill:rgb(16,84,114);"/>
        <path d="M545.419,364.867C666.088,396.053 685.145,512.968 672.23,562.381C671.684,564.468 668.571,561.696 667.842,561.091C655.859,551.155 625.809,521.814 624.747,515.461C624.678,515.052 620.146,454.029 559.641,423.22C519.897,402.982 502.255,419.498 488.666,399.392C480.241,386.924 485.288,359.728 513.496,360.656C529.552,361.184 536.893,363.108 545.419,364.867Z" style="fill:rgb(16,84,114);"/>
    </g>
</svg>
